<?xml version="1.0" standalone="no"?>
<!DOCTYPE svg PUBLIC "-//W3C//DTD SVG 1.0//EN" "http://www.w3.org/TR/2001/REC-SVG-20010904/DTD/svg10.dtd">
<svg xmlns="http://www.w3.org/2000/svg" xmlns:xlink="http://www.w3.org/1999/xlink" id="body_1" width="48" height="48">

<g transform="matrix(0.390625 0 0 0.390625 0 0)">
	<g>
        <path d="M61.44 0C 95.369995 0 122.88 27.51 122.88 61.44C 122.88 95.369995 95.369995 122.88 61.44 122.88C 27.51 122.88 0 95.37 0 61.44C 0 27.51 27.51 0 61.44 0z" stroke="none" fill="#EF4136" fill-rule="nonzero" />
        <path d="M79.16 46.24C 76.840004 43.56 77.130005 39.510002 79.810005 37.190002C 82.490005 34.870003 86.54001 35.160004 88.86001 37.840004C 91.65001 41.070004 93.87001 44.800003 95.39001 48.880005C 96.87001 52.860004 97.68001 57.110004 97.68001 61.500004C 97.68001 71.51 93.62001 80.57001 87.060005 87.130005C 80.5 93.69 71.45 97.75 61.44 97.75C 51.43 97.75 42.37 93.69 35.809998 87.13C 29.249996 80.56999 25.2 71.51 25.2 61.5C 25.2 57.18 25.980001 53 27.400002 49.1C 28.86 45.1 31.02 41.41 33.730003 38.19C 36.010002 35.48 40.050003 35.129997 42.760002 37.41C 45.47 39.69 45.820004 43.73 43.54 46.44C 41.81 48.5 40.420002 50.87 39.47 53.48C 38.57 55.95 38.08 58.65 38.08 61.5C 38.08 67.95 40.7 73.8 44.920002 78.03C 49.15 82.26 54.99 84.869995 61.440002 84.869995C 67.89 84.869995 73.740005 82.24999 77.96001 78.03C 82.18001 73.810005 84.810005 67.96 84.810005 61.5C 84.810005 58.59 84.3 55.85 83.380005 53.36C 82.4 50.74 80.97 48.33 79.16 46.24z" stroke="none" fill="#FFFFFF" fill-rule="nonzero" />
        <path d="M67.88 49.12C 67.88 52.67 65 55.559998 61.44 55.559998C 57.89 55.559998 55 52.679996 55 49.12L55 49.12L55 29.93C 55 26.380001 57.88 23.49 61.44 23.49C 64.99 23.49 67.88 26.369999 67.88 29.93L67.88 29.93L67.88 49.12z" stroke="none" fill="#FFFFFF" fill-rule="nonzero" />
	</g>
</g>
</svg>